<svg width="40" height="40" viewBox="0 0 40 40" fill="none" xmlns="http://www.w3.org/2000/svg">
<g clip-path="url(#clip0_506_1723)">
<path d="M10.5 29H3L2.5 30V39H10.5V29Z" fill="#00B669"/>
<path d="M24 19H16.5L16 21V39H24V19Z" fill="#00B669"/>
<path d="M37 23H29.5L29 24.6V39H37V23Z" fill="#00B669"/>
<path d="M39.1667 40.0002H0.833333C0.373333 40.0002 0 39.6268 0 39.1668C0 38.7068 0.373333 38.3335 0.833333 38.3335H39.1667C39.6267 38.3335 40 38.7068 40 39.1668C40 39.6268 39.6267 40.0002 39.1667 40.0002Z" fill="#121212"/>
<path d="M10.8333 40.0002H2.49996C2.03996 40.0002 1.66663 39.6268 1.66663 39.1668V30.0002C1.66663 29.0818 2.41329 28.3335 3.33329 28.3335H9.99996C10.92 28.3335 11.6666 29.0818 11.6666 30.0002V39.1668C11.6666 39.6268 11.2933 40.0002 10.8333 40.0002ZM3.33329 38.3335H9.99996V30.0002H3.33329V38.3335Z" fill="#121212"/>
<path d="M24.1667 40.0002H15.8333C15.3733 40.0002 15 39.6268 15 39.1668V20.0002C15 19.0818 15.7467 18.3335 16.6667 18.3335H23.3333C24.2533 18.3335 25 19.0818 25 20.0002V39.1668C25 39.6268 24.6267 40.0002 24.1667 40.0002ZM16.6667 38.3335H23.3333V20.0002H16.6667V38.3335Z" fill="#121212"/>
<path d="M37.5 39.9999H29.1667C28.7067 39.9999 28.3334 39.6265 28.3334 39.1665V23.3332C28.3334 22.4148 29.08 21.6665 30 21.6665H36.6667C37.5867 21.6665 38.3334 22.4148 38.3334 23.3332V39.1665C38.3334 39.6265 37.96 39.9999 37.5 39.9999ZM30 38.3332H36.6667V23.3332H30V38.3332Z" fill="#121212"/>
<path d="M4.16664 18.3331C3.9533 18.3331 3.73997 18.2514 3.57664 18.0898C3.25164 17.7648 3.25164 17.2364 3.57664 16.9114L11.91 8.5781C12.1166 8.37143 12.415 8.28477 12.7016 8.3581L25.5783 11.5764L35.245 1.90977C35.57 1.58477 36.0983 1.58477 36.4233 1.90977C36.7483 2.23477 36.7483 2.7631 36.4233 3.0881L26.4233 13.0881C26.2183 13.2948 25.9183 13.3781 25.6316 13.3064L12.755 10.0898L4.75497 18.0898C4.5933 18.2514 4.37997 18.3331 4.16664 18.3331Z" fill="#121212"/>
<path d="M35.8334 9.99984C35.3734 9.99984 35.0001 9.6265 35.0001 9.1665V3.33317H29.1667C28.7067 3.33317 28.3334 2.95984 28.3334 2.49984C28.3334 2.03984 28.7067 1.6665 29.1667 1.6665H35.8334C36.2934 1.6665 36.6667 2.03984 36.6667 2.49984V9.1665C36.6667 9.6265 36.2934 9.99984 35.8334 9.99984Z" fill="#121212"/>
</g>
<defs>
<clipPath id="clip0_506_1723">
<rect width="40" height="40" fill="white"/>
</clipPath>
</defs>
</svg>
